<svg width="124" height="102" viewBox="0 0 124 102" fill="none" xmlns="http://www.w3.org/2000/svg">
<path d="M124 27.487C124 26.4935 123.542 25.5 122.627 24.8377C122.627 24.8377 122.627 24.8377 122.17 24.5065C122.17 24.5065 121.712 24.5065 121.712 24.1753L64.5166 0.662338H64.059C63.6015 1.48044e-07 62.6863 0 61.7712 0C61.3137 0 60.8561 7.4022e-08 60.3985 0.331169C59.941 0.331169 59.941 0.662338 59.4834 0.662338L2.74539 24.1753C1.83026 24.5065 1.37269 24.8377 1.37269 24.8377C0.457565 25.5 0 26.4935 0 27.487V74.8442C0 76.1688 0.915129 77.4935 2.74539 78.1558L59.4834 101.669C59.4834 101.669 59.4834 101.669 59.941 101.669C60.3985 101.669 60.3985 102 60.8561 102C61.3137 102 61.7712 102 61.7712 102C62.2288 102 62.6864 102 62.6864 102C63.1439 102 63.1439 102 63.6015 101.669C63.6015 101.669 63.6015 101.669 64.059 101.669L120.797 78.1558C122.627 77.4935 123.542 76.1688 123.542 74.8442L124 27.487ZM22.4207 25.8312L60.8561 9.93507C61.7712 9.6039 62.6864 9.6039 63.1439 9.93507L101.579 26.1623C103.41 26.4935 103.41 28.4805 101.579 29.1429L63.1439 45.3701C62.2288 45.7013 61.3137 45.7013 60.8561 45.3701L22.4207 29.1429C20.5904 28.4805 20.5904 26.4935 22.4207 25.8312ZM55.3653 87.0974C55.3653 88.4221 53.5351 89.4156 51.7048 88.7533L13.2694 72.526C12.3542 72.1948 11.8967 71.5325 11.8967 71.2013V39.0779C11.8967 37.7533 13.7269 36.7597 15.5572 37.4221L53.9926 53.6494C54.9078 53.9805 55.3653 54.6429 55.3653 55.3052V87.0974ZM112.103 71.2013C112.103 71.8636 111.646 72.526 110.731 72.8571L72.2952 89.0844C70.465 89.7468 68.6347 88.7533 68.6347 87.4286V55.3052C68.6347 54.6429 69.0923 53.9805 70.0074 53.6494L108.443 37.4221C110.273 36.7597 112.103 37.7533 112.103 39.0779V71.2013Z" fill="#9FEF00"/>
</svg>
